<svg xmlns="http://www.w3.org/2000/svg" viewBox="0 0 16 16">
  <g id="Capa_2" data-name="Capa 2">
    <g id="Capa_1-2" data-name="Capa 1">
      <rect width="16" height="16" rx="2" fill="#c0be8f"/>
      <path d="M15.41,6.45A6.81,6.81,0,0,1,9.75,9.81c-1.06.12-1.77.2-2.11,1-.52,1.26.45,4,.94,5.2H4.35A10,10,0,0,1,5.58,9.8,2.73,2.73,0,0,0,4.44,8.44c-1.09-.86-2.59-2-2.8-6.1A.32.32,0,0,1,1.86,2a.33.33,0,0,1,.37.15,5.1,5.1,0,0,0,3,2.42,4.77,4.77,0,0,1,2.62,2,5.09,5.09,0,0,1,3.86-.28A4,4,0,0,0,15,6a.32.32,0,0,1,.44.44Z" fill="#fff"/>
    </g>
  </g>
</svg>
