<svg width="16" height="16" viewBox="0 0 16 16" fill="none" xmlns="http://www.w3.org/2000/svg">
<circle cx="8" cy="8" r="8" fill="#418B75"/>
<path fill-rule="evenodd" clip-rule="evenodd" d="M5.30291 15.5339C5.18011 13.8481 5.56542 12.1601 6.41564 10.6853C6.2268 10.1995 5.87914 9.78984 5.42785 9.52135L5.39715 9.49748C4.4555 8.76402 3.1817 7.77184 3.0017 4.30077C2.99462 4.23802 3.00976 4.17473 3.04449 4.12175C3.07922 4.06871 3.13146 4.02916 3.19232 4.00981C3.20934 4.00523 3.22668 4.00231 3.24407 4.0009C3.28826 3.99742 3.33294 4.00401 3.37451 4.02068C3.43243 4.04387 3.48101 4.08513 3.51293 4.13817C4.07177 5.1378 5.00494 5.88133 6.11236 6.20928C7.05102 6.49529 7.85583 7.1021 8.38256 7.92095C9.42199 7.40923 10.6239 7.32311 11.7272 7.68132C12.1929 7.84282 12.6881 7.90422 13.1797 7.86138C13.6713 7.81859 14.1481 7.67259 14.5779 7.43315C14.631 7.40105 14.6935 7.3875 14.7554 7.39476C14.8172 7.40196 14.8747 7.42955 14.9188 7.47307C14.9628 7.51653 14.9907 7.57341 14.998 7.63445C15.0054 7.69554 14.9917 7.75725 14.9592 7.80968L14.9332 7.81822C14.4284 8.66789 13.7138 9.37731 12.8561 9.88017C11.9985 10.383 11.0258 10.6629 10.0289 10.6938L10.0272 10.694C9.10967 10.7967 8.49505 10.8654 8.20062 11.5497C7.75872 12.6073 8.55865 14.8833 8.99017 15.9393C8.6657 15.9794 8.33526 16 7.99999 16C7.05358 16 6.14556 15.8356 5.30291 15.5339Z" fill="white"/>
</svg>
